<svg width="18" height="10" viewBox="0 0 18 10" fill="none" xmlns="http://www.w3.org/2000/svg">
<path d="M17.1964 0.714215C17.1964 0.714215 17.0714 0.357073 16.2946 0.455287L13.7232 0.473145C13.5268 0.446359 13.3839 0.526715 13.3839 0.526715C13.3839 0.526715 13.2321 0.607073 13.1607 0.803501C12.7411 1.88386 12.2054 2.81243 12.2054 2.81243C11.0625 4.75886 10.5982 4.866 10.4107 4.741C9.97321 4.46422 10.0893 3.616 10.0893 3.00886C10.0893 1.116 10.375 0.330287 9.52678 0.124929C9.25 0.0624294 9.04464 0.017787 8.32142 0.00885868C7.40178 -7.05719e-05 6.625 0.00885868 6.1875 0.223145C5.89285 0.366001 5.66964 0.687429 5.80357 0.705287C5.97321 0.732073 6.35714 0.812429 6.5625 1.08922C6.5625 1.08922 6.78571 1.45529 6.82142 2.25886C6.91964 4.48207 6.46428 4.75886 6.46428 4.75886C6.11607 4.94636 5.50892 4.63386 4.61607 2.79457C4.61607 2.79457 4.09821 1.88386 3.69642 0.883859C3.625 0.696359 3.48214 0.598145 3.48214 0.598145C3.48214 0.598145 3.32142 0.473145 3.08928 0.437429L0.642853 0.455287C0.267853 0.455287 0.133924 0.624929 0.133924 0.624929C0.133924 0.624929 -4.36604e-06 0.767787 0.124996 1.06243C2.03571 5.5535 4.21428 7.8035 4.21428 7.8035C4.21428 7.8035 6.20535 9.88386 8.46428 9.741H9.49107C9.80357 9.71422 9.96428 9.54457 9.96428 9.54457C9.96428 9.54457 10.1071 9.38386 10.0982 9.08922C10.0804 7.71422 10.7232 7.50886 10.7232 7.50886C11.3482 7.31243 12.1518 8.83922 13.0089 9.4285C13.0089 9.4285 13.6607 9.87493 14.1518 9.77672L16.4375 9.741C17.6429 9.73207 17.0714 8.73207 17.0714 8.73207C17.0268 8.65172 16.7411 8.03564 15.3661 6.75886C13.9375 5.4285 14.125 5.64279 15.8571 3.33922C16.9107 1.93743 17.3304 1.08029 17.1964 0.714215Z" fill="#D7B399"/>
</svg>
